<?xml version="1.0" encoding="utf-8"?>
<!-- Generator: Adobe Illustrator 28.1.0, SVG Export Plug-In . SVG Version: 6.00 Build 0)  -->
<svg version="1.1" id="Layer_1" xmlns="http://www.w3.org/2000/svg" xmlns:xlink="http://www.w3.org/1999/xlink" x="0px" y="0px"
	 viewBox="0 0 96 96" style="enable-background:new 0 0 96 96;" xml:space="preserve">
<style type="text/css">
	.st0{fill:#FFFFFF;}
	.st1{fill:#FBB332;}
	.st2{fill:none;stroke:#FBB332;stroke-width:1.2213;stroke-miterlimit:10;}
</style>
<rect y="0" width="96" height="96"/>
<g>
	<g>
		<g>
			<g>
				<path class="st0" d="M86.7,26.9v41.9c0,0.9-0.5,1.7-1.2,2.1l-36.3,21c-0.8,0.4-1.7,0.4-2.4,0l-36.3-21c-0.7-0.4-1.2-1.2-1.2-2.1
					V26.9c0-0.9,0.5-1.7,1.2-2.1l15-8.6V19l-13.9,8v42.1l36.4,21l36.4-21V27l-14.9-8.6v-2.9l16,9.3C86.3,25.2,86.8,26,86.7,26.9z"/>
			</g>
		</g>
		<g>
			<polygon class="st1" points="72.2,67.2 68,64.2 63.8,67.2 65.4,62.3 61.2,59.2 66.4,59.2 68,54.3 69.6,59.2 74.8,59.2 70.6,62.3 
							"/>
		</g>
		<g>
			<polygon class="st1" points="52.1,75.6 47.9,72.6 43.7,75.6 45.3,70.7 41.1,67.6 46.3,67.6 47.9,62.7 49.5,67.6 54.7,67.6 
				50.5,70.7 			"/>
		</g>
		<g>
			<polygon class="st1" points="30.9,67.2 26.7,64.2 22.5,67.2 24.1,62.3 19.9,59.3 25.1,59.2 26.7,54.3 28.3,59.2 33.5,59.2 
				29.3,62.3 			"/>
		</g>
	</g>
	<g>
		<path class="st2" d="M42,6.5h-1.5c-1.6,0-2.9,1.3-2.8,2.9l0.9,29.5c0.5,0.5,1.2,1.4,1.7,2.8c0.6,1.6,0.5,3,0.4,3.7h2.7
			c1.9,0,3.5-1.6,3.5-3.5L46.8,6.5H42z"/>
		<path class="st2" d="M54,6.5h1.5c1.6,0,2.9,1.3,2.8,2.9l-0.9,29.5c-0.5,0.5-1.2,1.4-1.7,2.8c-0.6,1.6-0.5,3-0.4,3.7h-2.7
			c-1.9,0-3.5-1.6-3.5-3.5l0.2-35.4C49.3,6.5,54,6.5,54,6.5z"/>
		<g>
			<path class="st1" d="M65,10.6c0,0-0.1-0.1-0.2-0.1c0,0-0.1,0-0.1,0c-1.2-0.4-2.4,0.2-2.9,1.3c-0.6,1.2,0.2,2.5,1.2,3
				c1.2,0.6,2.5-0.2,3-1.2C66.6,12.4,66,11.2,65,10.6z M65.2,12.9c0,0-0.1,0.3-0.1,0.3c-0.1,0.3-0.3,0.4-0.6,0.6
				c-0.1,0.1-0.2,0.1-0.5,0.1c0,0-0.2,0-0.3,0c0,0-0.3-0.1-0.3-0.1c-0.3-0.1-0.4-0.3-0.6-0.7c-0.1-0.1-0.1-0.2-0.1-0.5
				c0,0.2,0-0.1,0-0.2c0,0,0.1-0.3,0.1-0.3c0.1-0.3,0.3-0.4,0.7-0.6c0.1-0.1,0.2-0.1,0.5-0.1c-0.2,0,0.1,0,0.2,0
				c0,0,0.3,0.1,0.3,0.1c0.3,0.1,0.4,0.3,0.6,0.7c0,0.1,0.1,0.2,0.1,0.5C65.2,12.6,65.2,12.8,65.2,12.9z"/>
			<path class="st1" d="M64.6,20.4c0,0-0.1-0.1-0.2-0.1c0,0-0.1,0-0.1,0c-1.2-0.4-2.4,0.2-2.9,1.3c-0.6,1.2,0.2,2.5,1.2,3
				c1.2,0.6,2.5-0.2,3-1.2C66.2,22.2,65.6,20.9,64.6,20.4z M64.8,22.7c0,0-0.1,0.3-0.1,0.3c-0.1,0.3-0.3,0.4-0.7,0.6
				c-0.1,0.1-0.2,0.1-0.5,0.1c0.2,0-0.1,0-0.2,0c0,0-0.3-0.1-0.3-0.1c-0.3-0.1-0.4-0.3-0.6-0.7c0-0.1-0.1-0.2-0.1-0.5
				c0,0,0-0.2,0-0.3c0,0,0.1-0.3,0.1-0.3c0.1-0.3,0.3-0.4,0.6-0.6c0.1-0.1,0.2-0.1,0.5-0.1c0,0,0.2,0,0.3,0c0,0,0.3,0.1,0.3,0.1
				c0.3,0.1,0.4,0.3,0.6,0.6c0.1,0.1,0.1,0.2,0.1,0.5C64.8,22.4,64.8,22.6,64.8,22.7z"/>
			<path class="st1" d="M64.1,30.1c0,0-0.1-0.1-0.2-0.1c0,0-0.1,0-0.1,0c-1.2-0.4-2.4,0.2-2.9,1.3c-0.6,1.2,0.2,2.5,1.2,3
				c1.2,0.6,2.5-0.1,3-1.2C65.7,31.9,65.1,30.7,64.1,30.1z M64.3,32.4c0,0-0.1,0.3-0.1,0.3c-0.1,0.3-0.3,0.4-0.6,0.6
				c-0.1,0.1-0.2,0.1-0.5,0.1c0,0-0.2,0-0.3,0c0,0-0.3-0.1-0.3-0.1c-0.3-0.1-0.4-0.3-0.6-0.6c-0.1-0.1-0.1-0.2-0.1-0.5
				c0,0,0-0.2,0-0.3c0,0,0.1-0.3,0.1-0.3c0.1-0.3,0.3-0.4,0.7-0.6c0.1-0.1,0.2-0.1,0.5-0.1c-0.2,0,0.1,0,0.2,0c0,0,0.3,0.1,0.3,0.1
				c0.3,0.1,0.4,0.3,0.6,0.7c0,0.1,0.1,0.2,0.1,0.5C64.3,32.2,64.3,32.3,64.3,32.4z"/>
		</g>
		<g>
			<path class="st1" d="M34.1,11.8c-0.5-1.1-1.7-1.7-2.9-1.3c0,0-0.1,0-0.1,0c-0.1,0-0.1,0-0.2,0.1c-1,0.6-1.6,1.8-1.1,2.9
				c0.5,1.1,1.8,1.8,3,1.2C34,14.2,34.7,12.9,34.1,11.8z M33.2,13.1c-0.1,0.3-0.3,0.5-0.6,0.7c0,0-0.3,0.1-0.3,0.1
				c-0.1,0-0.3,0-0.3,0c-0.2,0-0.4,0-0.5-0.1c-0.3-0.1-0.5-0.3-0.6-0.6c0,0-0.1-0.3-0.1-0.3c0-0.1,0-0.3,0-0.3c0-0.2,0-0.4,0.1-0.5
				c0.2-0.3,0.3-0.5,0.6-0.7c0,0,0.3-0.1,0.3-0.1c0.1,0,0.3,0,0.3,0c0.2,0,0.4,0,0.5,0.1c0.3,0.1,0.5,0.3,0.6,0.6
				c0,0,0.1,0.3,0.1,0.3c0,0.1,0,0.3,0,0.3C33.3,12.9,33.2,13,33.2,13.1z"/>
			<path class="st1" d="M34.5,21.5c-0.5-1.1-1.7-1.7-2.9-1.3c0,0-0.1,0-0.1,0c-0.1,0-0.1,0-0.2,0.1c-1,0.6-1.6,1.8-1.1,2.9
				c0.5,1.1,1.8,1.8,3,1.2C34.4,24,35.1,22.7,34.5,21.5z M33.6,22.9c-0.1,0.3-0.3,0.5-0.6,0.7c0,0-0.3,0.1-0.3,0.1
				c-0.1,0-0.3,0-0.3,0c-0.2,0-0.4,0-0.5-0.1c-0.3-0.1-0.5-0.3-0.7-0.6c0,0-0.1-0.3-0.1-0.3c0-0.1,0-0.3,0-0.3c0-0.2,0-0.4,0.1-0.5
				c0.2-0.3,0.3-0.5,0.6-0.6c0,0,0.3-0.1,0.3-0.1c0.1,0,0.3,0,0.3,0c0.2,0,0.4,0,0.5,0.1c0.3,0.1,0.5,0.3,0.7,0.6
				c0,0,0.1,0.3,0.1,0.3c0,0.1,0,0.3,0,0.3C33.6,22.6,33.6,22.7,33.6,22.9z"/>
			<path class="st1" d="M35,31.3c-0.5-1.1-1.7-1.7-2.9-1.3c0,0-0.1,0-0.1,0c-0.1,0-0.1,0.1-0.2,0.1c-1,0.6-1.6,1.8-1.1,2.9
				c0.5,1.1,1.8,1.8,3,1.2C34.9,33.8,35.6,32.4,35,31.3z M34.1,32.6c-0.1,0.3-0.3,0.5-0.6,0.6c0,0-0.3,0.1-0.3,0.1
				c-0.1,0-0.3,0-0.3,0c-0.2,0-0.4,0-0.5-0.1c-0.3-0.1-0.5-0.3-0.7-0.6c0,0-0.1-0.3-0.1-0.3c0-0.1,0-0.4,0-0.2c0-0.3,0-0.4,0.1-0.5
				c0.1-0.3,0.3-0.5,0.6-0.7c0,0,0.3-0.1,0.3-0.1c0.1,0,0.3,0,0.3,0c0.3,0,0.4,0,0.5,0.1c0.3,0.1,0.5,0.3,0.6,0.6
				c0,0,0.1,0.3,0.1,0.3c0,0.1,0,0.3,0,0.3C34.2,32.4,34.1,32.5,34.1,32.6z"/>
		</g>
		<path class="st2" d="M47.1,52.7h-6v-5.3h2.6c1.9,0,3.4,1.5,3.4,3.4C47.1,50.7,47.1,52.7,47.1,52.7z"/>
		<path class="st2" d="M54.9,52.7h-5.9v-1.9c0-1.9,1.5-3.4,3.4-3.4h2.5V52.7z"/>
	</g>
</g>
</svg>
