<?xml version="1.0" encoding="utf-8"?>
<!-- Generator: Adobe Illustrator 28.1.0, SVG Export Plug-In . SVG Version: 6.00 Build 0)  -->
<svg version="1.1" id="Layer_1" xmlns="http://www.w3.org/2000/svg" xmlns:xlink="http://www.w3.org/1999/xlink" x="0px" y="0px"
	 viewBox="0 0 190 190" style="enable-background:new 0 0 190 190;" xml:space="preserve">
<style type="text/css">
	.st0{fill:#FFFFFF;}
	.st1{fill:#FBB332;}
	.st2{fill:none;stroke:#FBB332;stroke-width:0.75;stroke-miterlimit:10;}
</style>
<g>
	<g>
		<g>
			<g>
				<path class="st0" d="M156.46,70.76l-35.03-20.24v4.74l33.22,19.18v68.89l-59.66,34.43l-59.65-34.43V74.45l33.22-19.18v-4.73
					L33.53,70.76c-1.22,0.71-1.98,2.02-1.98,3.44v68.68c0,1.42,0.76,2.74,1.98,3.44l59.48,34.35c1.23,0.71,2.75,0.71,3.98,0
					l59.47-34.35c1.23-0.7,1.99-2.02,1.99-3.44V74.2C158.46,72.78,157.69,71.47,156.46,70.76z"/>
			</g>
		</g>
		<g>
			<polygon class="st1" points="114.77,156.82 111.25,154.27 107.73,156.83 109.07,152.7 105.55,150.15 109.9,150.14 111.23,146 
				112.58,150.14 116.93,150.13 113.42,152.69 			"/>
		</g>
		<g>
			<polygon class="st1" points="97.91,163.86 94.39,161.31 90.88,163.87 92.22,159.73 88.7,157.18 93.04,157.18 94.38,153.04 
				95.73,157.17 100.08,157.17 96.56,159.73 			"/>
		</g>
		<g>
			<polygon class="st1" points="80.17,156.84 76.65,154.29 73.14,156.85 74.48,152.72 70.96,150.17 75.3,150.16 76.64,146.03 
				77.99,150.16 82.33,150.15 78.82,152.71 			"/>
		</g>
	</g>
	<g>
		<path class="st0" d="M63.67,114.08c-0.24-0.46-0.56-0.86-0.97-1.18c-0.41-0.32-0.87-0.58-1.36-0.8c-0.5-0.21-1.02-0.39-1.55-0.51
			l-1.36-0.34c-0.39-0.1-0.77-0.23-1.16-0.39c-0.39-0.16-0.7-0.37-0.95-0.63s-0.38-0.6-0.38-1c0-0.38,0.1-0.71,0.32-1
			c0.21-0.3,0.52-0.52,0.92-0.69c0.4-0.17,0.88-0.25,1.42-0.25c0.79,0,1.43,0.18,1.92,0.52c0.5,0.34,0.78,0.82,0.85,1.45h2.44
			c-0.01-0.79-0.24-1.51-0.68-2.13c-0.45-0.63-1.04-1.12-1.82-1.46c-0.77-0.36-1.66-0.53-2.67-0.53c-1,0-1.9,0.18-2.68,0.53
			c-0.79,0.34-1.42,0.85-1.88,1.48s-0.69,1.38-0.69,2.21c0,1.03,0.34,1.87,1.02,2.49c0.68,0.62,1.62,1.09,2.8,1.39l1.65,0.43
			c0.52,0.14,0.97,0.28,1.37,0.46c0.4,0.17,0.7,0.38,0.93,0.63c0.22,0.25,0.33,0.56,0.33,0.94c0,0.43-0.13,0.8-0.38,1.12
			c-0.26,0.32-0.61,0.57-1.04,0.75c-0.44,0.18-0.95,0.26-1.52,0.26c-0.55,0-1.05-0.08-1.5-0.25c-0.45-0.17-0.8-0.42-1.09-0.75
			c-0.27-0.33-0.43-0.75-0.47-1.26H53c0.04,0.94,0.29,1.74,0.75,2.4c0.46,0.66,1.11,1.17,1.92,1.51c0.82,0.34,1.79,0.51,2.9,0.51
			c1.15,0,2.13-0.18,2.93-0.54c0.81-0.36,1.43-0.86,1.86-1.49c0.43-0.65,0.65-1.38,0.65-2.22
			C64.02,115.08,63.91,114.54,63.67,114.08z"/>
		<path class="st0" d="M72.09,117.63v-4.1h6.31v-2.11h-6.31v-3.96h6.8v-2.13h-9.33v14.43h9.37v-2.13H72.09z"/>
		<path class="st0" d="M94.64,107.52c-0.39-0.69-0.96-1.23-1.71-1.62c-0.75-0.39-1.68-0.57-2.79-0.57h-5.36v14.43h2.52v-5.33h2.81
			c0.96,0,1.8-0.15,2.5-0.43c0.1-0.03,0.21-0.07,0.3-0.13c0.76-0.37,1.34-0.89,1.72-1.57c0.39-0.68,0.58-1.47,0.58-2.39
			C95.21,109.01,95.02,108.21,94.64,107.52z M92.33,111.24c-0.2,0.36-0.51,0.64-0.93,0.81c-0.42,0.19-0.96,0.28-1.63,0.28H87.3
			v-4.89h2.46c0.67,0,1.21,0.09,1.64,0.29c0.42,0.2,0.73,0.48,0.93,0.86c0.2,0.37,0.3,0.81,0.3,1.33
			C92.63,110.44,92.53,110.88,92.33,111.24z M92.6,114.01l-0.43-0.78h-2.77l0.65,1.21l2.85,5.33h2.84L92.6,114.01z"/>
		<path class="st0" d="M110.05,105.33l-3.82,11.43h-0.15l-3.8-11.43h-2.78l5.12,14.43h3.07l5.11-14.43H110.05z"/>
		<path class="st0" d="M117.92,105.33v14.43h2.52v-14.43H117.92z"/>
		<path class="st0" d="M136.64,114.08c-0.24-0.46-0.56-0.86-0.97-1.18c-0.41-0.32-0.86-0.58-1.36-0.8c-0.5-0.21-1.01-0.39-1.55-0.51
			l-1.36-0.34c-0.39-0.1-0.77-0.23-1.16-0.39c-0.39-0.16-0.7-0.37-0.95-0.63c-0.25-0.26-0.37-0.6-0.37-1c0-0.38,0.1-0.71,0.31-1
			c0.22-0.3,0.52-0.52,0.92-0.69c0.41-0.17,0.88-0.25,1.43-0.25c0.78,0,1.43,0.18,1.92,0.52c0.49,0.34,0.77,0.82,0.84,1.45h2.45
			c-0.02-0.79-0.25-1.51-0.69-2.13c-0.44-0.63-1.04-1.12-1.82-1.46c-0.76-0.36-1.65-0.53-2.67-0.53c-0.99,0-1.89,0.18-2.68,0.53
			c-0.79,0.34-1.42,0.85-1.88,1.48s-0.68,1.38-0.68,2.21c0,1.03,0.33,1.87,1.01,2.49c0.69,0.62,1.62,1.09,2.8,1.39l1.66,0.43
			c0.51,0.14,0.97,0.28,1.37,0.46c0.39,0.17,0.7,0.38,0.92,0.63c0.22,0.25,0.33,0.56,0.33,0.94c0,0.43-0.13,0.8-0.38,1.12
			c-0.25,0.32-0.6,0.57-1.04,0.75c-0.44,0.18-0.95,0.26-1.52,0.26c-0.54,0-1.04-0.08-1.49-0.25c-0.45-0.17-0.81-0.42-1.09-0.75
			c-0.27-0.33-0.44-0.75-0.48-1.26h-2.49c0.03,0.94,0.28,1.74,0.74,2.4c0.47,0.66,1.11,1.17,1.93,1.51
			c0.81,0.34,1.79,0.51,2.89,0.51c1.15,0,2.13-0.18,2.94-0.54c0.8-0.36,1.43-0.86,1.86-1.49c0.43-0.65,0.64-1.38,0.64-2.22
			C137,115.08,136.88,114.54,136.64,114.08z"/>
	</g>
	<g>
		<g>
			<path class="st0" d="M69.08,90.23v2.33h4.85c-0.01,1.04-0.23,1.95-0.65,2.73c-0.45,0.8-1.07,1.43-1.87,1.87
				c-0.79,0.44-1.72,0.66-2.79,0.66c-1.15,0-2.18-0.28-3.1-0.86c-0.91-0.56-1.63-1.4-2.15-2.51c-0.53-1.11-0.79-2.45-0.79-4.05
				c0-1.6,0.26-2.94,0.79-4.05c0.52-1.11,1.23-1.94,2.13-2.51c0.89-0.57,1.89-0.86,3-0.86c0.66,0,1.26,0.08,1.81,0.26
				c0.55,0.18,1.04,0.43,1.47,0.76c0.44,0.33,0.8,0.73,1.12,1.2c0.31,0.47,0.57,1,0.76,1.61h2.85c-0.17-0.95-0.48-1.81-0.94-2.59
				c-0.47-0.77-1.05-1.45-1.76-2.02c-0.71-0.57-1.51-1.01-2.41-1.32c-0.9-0.31-1.87-0.47-2.91-0.47c-1.67,0-3.16,0.41-4.46,1.21
				c-1.29,0.8-2.32,1.95-3.07,3.45c-0.74,1.49-1.12,3.27-1.12,5.33c0,2.05,0.37,3.81,1.11,5.29c0.74,1.49,1.76,2.64,3.08,3.46
				c1.32,0.8,2.85,1.21,4.59,1.21c1.57,0,2.96-0.33,4.17-0.98c1.21-0.65,2.16-1.57,2.85-2.76c0.69-1.18,1.03-2.59,1.03-4.22v-2.18
				H69.08z"/>
		</g>
		<g>
			<g>
				<path class="st0" d="M128.71,83.61c-0.49-0.91-1.23-1.63-2.21-2.14c-0.98-0.52-2.23-0.78-3.75-0.78h-6.84v19.42h2.79v-7.4h4.32
					c1.1-0.02,2.05-0.19,2.85-0.49c0.22-0.07,0.42-0.16,0.62-0.26c0.99-0.5,1.73-1.2,2.22-2.09c0.49-0.9,0.74-1.93,0.74-3.11
					C129.46,85.57,129.21,84.51,128.71,83.61z M126.22,88.65c-0.27,0.53-0.72,0.94-1.32,1.22c-0.61,0.27-1.4,0.42-2.38,0.42h-3.82
					v-7.2h3.81c0.98,0,1.78,0.15,2.37,0.45c0.61,0.29,1.05,0.71,1.34,1.26c0.28,0.54,0.42,1.19,0.42,1.94
					C126.64,87.48,126.5,88.12,126.22,88.65z M125.87,92.21l-0.47-0.87h-3.1l0.72,1.36l3.97,7.4h3.2L125.87,92.21z"/>
			</g>
		</g>
		<g>
			<path class="st0" d="M80.8,83.46v14.29h2.75V83.46H80.8z"/>
			<path class="st0" d="M87.02,83.46v2.28h4.39v12.01h2.75V85.74h4.39v-2.28H87.02z"/>
			<path class="st0" d="M107.83,83.46h-3.43l-5.01,14.29h2.93l1.14-3.44l0.73-2.17l1.87-5.63h0.11l1.87,5.63l0.72,2.17l1.14,3.44
				h2.92L107.83,83.46z M102.32,92.14v2.17h7.58v-2.17H102.32z"/>
		</g>
	</g>
	<g>
		<path class="st0" d="M57.19,130.38l2.63-3.05h-1.5l-2.65,3.12h-0.08v-3.12h-1.23v6.8h1.23v-2.03l0.75-0.89l2.04,2.91h1.47
			L57.19,130.38z"/>
		<path class="st0" d="M67.51,128.36c-0.18-0.32-0.45-0.58-0.8-0.76c-0.36-0.19-0.79-0.27-1.32-0.27h-2.56v6.8h1.23v-2.5h1.31
			c0.47,0,0.87-0.06,1.19-0.2c0.05-0.01,0.09-0.03,0.14-0.05c0.37-0.18,0.64-0.43,0.81-0.74c0.19-0.32,0.28-0.7,0.28-1.14
			C67.79,129.07,67.7,128.69,67.51,128.36z M64.06,128.35h1.14c0.3,0,0.55,0.05,0.75,0.14c0.2,0.09,0.34,0.23,0.44,0.4
			c0.09,0.17,0.14,0.38,0.14,0.62c0,0.24-0.04,0.45-0.14,0.62c-0.09,0.17-0.24,0.28-0.43,0.38c-0.2,0.08-0.45,0.13-0.76,0.13h-1.14
			V128.35z M66.56,131.43l-0.21-0.39h-1.34l0.31,0.58l1.34,2.5h1.38L66.56,131.43z"/>
		<path class="st0" d="M74.56,127.33h-1.52l-2.4,6.8h1.32l0.56-1.68l0.33-0.98l0.92-2.75h0.05l0.92,2.75l0.33,0.98l0.56,1.68h1.32
			L74.56,127.33z M72,131.47v0.98h3.58v-0.98H72z"/>
		<path class="st0" d="M82.78,130.57v0.96h1.57c-0.01,0.31-0.08,0.6-0.21,0.83c-0.14,0.24-0.33,0.43-0.58,0.56
			c-0.25,0.14-0.55,0.2-0.9,0.2c-0.38,0-0.71-0.09-1-0.27c-0.28-0.19-0.51-0.46-0.68-0.81c-0.16-0.36-0.24-0.79-0.24-1.31
			c0-0.51,0.08-0.94,0.24-1.31c0.17-0.34,0.4-0.62,0.68-0.8c0.28-0.18,0.62-0.27,0.98-0.27c0.2,0,0.39,0.02,0.56,0.07
			c0.17,0.05,0.32,0.13,0.46,0.23c0.14,0.1,0.25,0.23,0.34,0.37c0.09,0.15,0.17,0.31,0.22,0.49h1.25c-0.05-0.33-0.16-0.64-0.31-0.92
			c-0.17-0.27-0.38-0.51-0.63-0.72c-0.26-0.2-0.54-0.36-0.87-0.46c-0.32-0.11-0.68-0.17-1.05-0.17c-0.6,0-1.13,0.14-1.6,0.42
			c-0.47,0.28-0.84,0.68-1.11,1.2c-0.27,0.52-0.42,1.15-0.42,1.88c0,0.72,0.14,1.34,0.41,1.86c0.26,0.52,0.63,0.92,1.11,1.2
			c0.47,0.28,1.02,0.43,1.65,0.43c0.55,0,1.05-0.11,1.49-0.34c0.43-0.23,0.77-0.55,1.02-0.98c0.24-0.42,0.37-0.93,0.37-1.51v-0.81
			H82.78z"/>
		<path class="st0" d="M93.17,127.33v4.33c0,0.28-0.06,0.53-0.19,0.75c-0.13,0.23-0.3,0.4-0.53,0.52c-0.23,0.13-0.5,0.19-0.81,0.19
			c-0.3,0-0.57-0.06-0.8-0.19c-0.23-0.13-0.41-0.29-0.53-0.52c-0.13-0.22-0.19-0.47-0.19-0.75v-4.33h-1.23v4.44
			c0,0.48,0.11,0.91,0.34,1.28c0.23,0.37,0.55,0.66,0.96,0.87c0.42,0.21,0.9,0.31,1.45,0.31c0.55,0,1.04-0.1,1.46-0.31
			c0.41-0.21,0.73-0.5,0.96-0.87c0.23-0.38,0.34-0.8,0.34-1.28v-4.44H93.17z"/>
		<path class="st0" d="M100.57,127.33v4.78c0,0.24-0.04,0.44-0.1,0.61c-0.07,0.16-0.18,0.28-0.32,0.37
			c-0.14,0.08-0.3,0.13-0.49,0.13s-0.36-0.03-0.49-0.1c-0.14-0.07-0.25-0.18-0.32-0.3c-0.08-0.14-0.13-0.29-0.13-0.48v-0.1h-1.22
			v0.1c0,0.42,0.09,0.77,0.29,1.05c0.19,0.28,0.45,0.49,0.77,0.64c0.33,0.14,0.69,0.21,1.1,0.21c0.44,0,0.81-0.08,1.13-0.25
			c0.32-0.18,0.57-0.42,0.75-0.73c0.17-0.31,0.26-0.69,0.26-1.13v-4.78H100.57z"/>
		<path class="st0" d="M106.51,133.1v-1.89h2.97v-1.02h-2.97v-1.83h3.2v-1.02h-4.43v6.8h4.45v-1.03H106.51z"/>
		<path class="st0" d="M117.63,127.33l-1.76,5.35h-0.07l-1.76-5.35h-1.36l2.4,6.8h1.51l2.39-6.8H117.63z"/>
		<path class="st0" d="M124.73,127.33h-1.51l-2.4,6.8h1.32l0.56-1.68l0.32-0.98l0.92-2.75h0.06l0.92,2.75l0.33,0.98l0.56,1.68h1.31
			L124.73,127.33z M122.17,131.47v0.98h3.59v-0.98H122.17z"/>
		<path class="st0" d="M134.22,132.41c-0.1,0.15-0.22,0.28-0.37,0.39c-0.15,0.11-0.3,0.19-0.48,0.25c-0.18,0.05-0.37,0.07-0.57,0.07
			c-0.37,0-0.69-0.08-0.98-0.27c-0.28-0.18-0.51-0.45-0.67-0.8c-0.17-0.36-0.25-0.79-0.25-1.31c0-0.51,0.08-0.95,0.25-1.31
			c0.16-0.36,0.39-0.63,0.67-0.81c0.29-0.18,0.62-0.27,0.98-0.27c0.21,0,0.41,0.02,0.58,0.08c0.18,0.05,0.34,0.14,0.48,0.25
			c0.15,0.11,0.26,0.24,0.36,0.41c0.09,0.16,0.17,0.33,0.2,0.54h1.24c-0.05-0.38-0.16-0.72-0.32-1.01
			c-0.17-0.29-0.38-0.54-0.63-0.75c-0.26-0.21-0.55-0.37-0.88-0.47c-0.32-0.1-0.68-0.16-1.05-0.16c-0.58,0-1.12,0.14-1.59,0.42
			c-0.47,0.27-0.85,0.67-1.12,1.19c-0.27,0.53-0.41,1.16-0.41,1.89c0,0.73,0.14,1.36,0.41,1.88c0.27,0.51,0.64,0.92,1.11,1.19
			c0.47,0.28,1,0.42,1.6,0.42c0.41,0,0.77-0.06,1.11-0.19c0.33-0.11,0.63-0.28,0.88-0.5c0.25-0.21,0.45-0.46,0.6-0.75
			c0.16-0.28,0.25-0.58,0.3-0.91h-1.24C134.37,132.07,134.31,132.25,134.22,132.41z"/>
	</g>
	<path class="st2" d="M87.96,10.8h-1.81c-1.98,0-3.57,1.64-3.5,3.62l1.16,36.69c0.6,0.64,1.54,1.8,2.16,3.49
		c0.72,1.99,0.65,3.72,0.54,4.63h3.35c2.42,0,4.38-1.97,4.36-4.39L93.9,10.8H87.96z"/>
	<path class="st2" d="M102.95,10.8h1.81c1.98,0,3.57,1.64,3.5,3.62l-1.16,36.69c-0.6,0.64-1.54,1.8-2.16,3.49
		c-0.72,1.99-0.65,3.72-0.54,4.63h-3.35c-2.42,0-4.38-1.97-4.36-4.39l0.31-44.04H102.95z"/>
	<g>
		<path class="st1" d="M116.6,15.92c-0.05-0.04-0.13-0.08-0.2-0.1c-0.04-0.02-0.07-0.03-0.11-0.05c-1.45-0.52-2.96,0.2-3.61,1.58
			c-0.69,1.45,0.19,3.08,1.54,3.73c1.45,0.69,3.08-0.19,3.72-1.54C118.59,18.16,117.83,16.62,116.6,15.92z M116.83,18.78
			c-0.02,0-0.13,0.38-0.14,0.38c-0.15,0.38-0.42,0.55-0.8,0.73c-0.16,0.07-0.28,0.09-0.61,0.11c0-0.01-0.22-0.03-0.32-0.04
			c0-0.02-0.37-0.13-0.38-0.13c-0.38-0.16-0.55-0.43-0.73-0.81c-0.08-0.17-0.1-0.3-0.14-0.67c0.02,0.22,0.05-0.11,0.06-0.26
			c0.02,0,0.13-0.37,0.13-0.38c0.16-0.38,0.43-0.55,0.81-0.73c0.17-0.08,0.3-0.1,0.67-0.14c-0.22,0.02,0.11,0.05,0.26,0.06
			c0,0.02,0.37,0.13,0.38,0.13c0.37,0.18,0.54,0.41,0.73,0.81c0.06,0.16,0.09,0.28,0.11,0.6C116.86,18.44,116.84,18.67,116.83,18.78
			z"/>
		<path class="st1" d="M116.14,28.06c-0.06-0.04-0.13-0.07-0.21-0.1c-0.03-0.02-0.07-0.03-0.1-0.04c-1.45-0.52-2.97,0.2-3.61,1.57
			c-0.69,1.45,0.19,3.09,1.52,3.73c1.45,0.69,3.09-0.19,3.73-1.54C118.13,30.31,117.36,28.76,116.14,28.06z M116.37,30.92
			c-0.02,0-0.14,0.38-0.14,0.39c-0.15,0.37-0.42,0.55-0.81,0.72c-0.17,0.08-0.3,0.1-0.67,0.14c0.22-0.02-0.11-0.05-0.26-0.05
			c0-0.03-0.37-0.14-0.38-0.14c-0.37-0.15-0.55-0.42-0.73-0.81c-0.06-0.16-0.09-0.28-0.11-0.6c0.02,0,0.03-0.22,0.04-0.33
			c0.03,0,0.14-0.37,0.14-0.38c0.15-0.37,0.42-0.55,0.8-0.73c0.16-0.07,0.29-0.09,0.61-0.11c0,0.02,0.22,0.03,0.32,0.04
			c0,0.02,0.39,0.13,0.39,0.14c0.37,0.18,0.54,0.4,0.72,0.8c0.08,0.17,0.1,0.29,0.13,0.61C116.39,30.6,116.38,30.82,116.37,30.92z"
			/>
		<path class="st1" d="M115.47,40.21c-0.06-0.03-0.13-0.07-0.2-0.1c-0.04-0.01-0.07-0.03-0.11-0.04c-1.45-0.52-2.96,0.2-3.61,1.58
			c-0.69,1.44,0.19,3.08,1.54,3.72c1.44,0.69,3.08-0.18,3.72-1.52C117.46,42.45,116.71,40.92,115.47,40.21z M115.7,43.08
			c-0.03,0-0.14,0.37-0.14,0.38c-0.15,0.37-0.42,0.55-0.8,0.73c-0.16,0.07-0.29,0.09-0.61,0.11c0-0.02-0.22-0.03-0.32-0.04
			c0-0.02-0.38-0.14-0.39-0.14c-0.37-0.15-0.55-0.42-0.72-0.8c-0.08-0.17-0.1-0.29-0.13-0.61c0.02,0,0.03-0.22,0.04-0.32
			c0.02,0,0.14-0.38,0.14-0.39c0.15-0.37,0.42-0.54,0.81-0.72c0.17-0.08,0.3-0.1,0.67-0.14c-0.22,0.02,0.11,0.05,0.26,0.05
			c0,0.03,0.37,0.14,0.38,0.14c0.37,0.18,0.54,0.41,0.73,0.81c0.06,0.16,0.09,0.28,0.11,0.6C115.72,42.74,115.71,42.96,115.7,43.08z
			"/>
	</g>
	<g>
		<path class="st1" d="M78.17,17.34c-0.66-1.38-2.16-2.1-3.61-1.58c-0.03,0.02-0.07,0.03-0.11,0.05c-0.07,0.02-0.14,0.06-0.2,0.1
			c-1.22,0.7-1.98,2.25-1.33,3.61c0.64,1.35,2.28,2.22,3.73,1.54C77.98,20.42,78.86,18.79,78.17,17.34z M77,19.02
			c-0.18,0.39-0.37,0.66-0.73,0.81c-0.01,0-0.39,0.1-0.39,0.13c-0.1,0.01-0.32,0.03-0.32,0.04c-0.31-0.02-0.44-0.05-0.61-0.11
			c-0.39-0.18-0.66-0.36-0.8-0.73c0-0.01-0.11-0.38-0.14-0.38c-0.01-0.1-0.02-0.33-0.04-0.33c0.02-0.31,0.05-0.44,0.11-0.6
			c0.19-0.41,0.37-0.64,0.73-0.81c0.01,0,0.39-0.1,0.39-0.13c0.1-0.01,0.32-0.03,0.32-0.05c0.31,0.02,0.44,0.04,0.61,0.13
			c0.39,0.18,0.66,0.36,0.8,0.73c0,0.01,0.11,0.38,0.14,0.38c0.01,0.11,0.02,0.33,0.04,0.33C77.1,18.74,77.06,18.86,77,19.02z"/>
		<path class="st1" d="M78.64,29.48c-0.66-1.37-2.16-2.09-3.61-1.57c-0.04,0.01-0.08,0.02-0.11,0.04c-0.07,0.03-0.15,0.06-0.21,0.1
			c-1.22,0.7-1.97,2.25-1.33,3.61c0.65,1.35,2.28,2.22,3.73,1.54C78.45,32.57,79.33,30.93,78.64,29.48z M77.46,31.16
			c-0.18,0.4-0.37,0.67-0.73,0.81c-0.01,0-0.38,0.11-0.38,0.14c-0.1,0-0.33,0.02-0.33,0.04c-0.31-0.02-0.44-0.05-0.6-0.13
			c-0.39-0.17-0.67-0.36-0.81-0.72c0-0.01-0.1-0.39-0.13-0.39c-0.01-0.1-0.03-0.32-0.05-0.32c0.02-0.31,0.05-0.44,0.13-0.61
			c0.19-0.41,0.36-0.63,0.73-0.8c0-0.01,0.38-0.11,0.38-0.14c0.1-0.01,0.33-0.02,0.33-0.04c0.31,0.02,0.44,0.05,0.6,0.11
			c0.39,0.18,0.66,0.37,0.81,0.73c0,0.01,0.1,0.38,0.13,0.38c0.01,0.11,0.03,0.33,0.04,0.33C77.56,30.88,77.52,31.01,77.46,31.16z"
			/>
		<path class="st1" d="M79.3,41.64c-0.65-1.38-2.15-2.1-3.61-1.58c-0.03,0.01-0.07,0.03-0.1,0.04c-0.08,0.03-0.15,0.07-0.21,0.1
			c-1.22,0.71-1.98,2.25-1.33,3.62c0.64,1.35,2.28,2.21,3.73,1.52C79.11,44.72,79.99,43.08,79.3,41.64z M78.13,43.32
			c-0.18,0.39-0.37,0.66-0.73,0.8c-0.01,0-0.38,0.1-0.38,0.14c-0.11,0.01-0.33,0.02-0.33,0.04c-0.31-0.02-0.44-0.05-0.6-0.11
			c-0.4-0.18-0.67-0.37-0.81-0.73c0-0.01-0.1-0.38-0.14-0.38c0-0.15-0.03-0.48-0.05-0.26c0.03-0.37,0.05-0.5,0.14-0.67
			c0.18-0.41,0.36-0.64,0.73-0.81c0,0,0.38-0.11,0.38-0.14c0.1,0,0.32-0.02,0.32-0.04c0.32,0.02,0.45,0.05,0.61,0.13
			c0.39,0.18,0.66,0.36,0.8,0.72c0,0.01,0.11,0.39,0.14,0.39c0.01,0.1,0.02,0.32,0.04,0.32C78.22,43.03,78.2,43.15,78.13,43.32z"/>
	</g>
	<path class="st2" d="M94.25,68.23h-7.41v-6.59h3.24c2.31,0,4.17,1.87,4.17,4.17V68.23z"/>
	<path class="st2" d="M104.07,68.23h-7.32v-2.42c0-2.31,1.87-4.17,4.17-4.17h3.15V68.23z"/>
</g>
</svg>
